<svg xmlns="http://www.w3.org/2000/svg" width="128" height="128" fill="none"><g clip-path="url(#clip0_721_1596)"><rect width="128" height="128" rx="64" fill="#306F63"></rect><g clip-path="url(#clip1_721_1596)" fill="#EBEBED"><path d="M33.4162 84.7177c5.8268.3812 13.7961-1.9873 17.8113.8182 15.7758 11.1106 23.0784 30.0581 26.8494 48.3761 1.6437 7.954 5.4808 15.151 8.1118 22.77 2.9261 9.403 5.8624 18.836 10.2237 27.67 8.1986 15.924 21.4246 29.103 36.6406 38.424 10.804 7.914 23.231 12.956 36.019 16.661 4.769 1.398 9.67 2.125 14.529 3.014 3.201 1.154 1.349-3.766 1.817-5.413 0-1.286-.071-1.387-1.267-1.697-12.722-3.411-25.582-7.939-36.518-15.421-9.192-5.563-17.853-11.959-25.873-19.105-4.819-6.171-11.261-11.304-14.467-18.618-2.067-2.404-4.072-4.895-5.349-7.883-8.6257-18.165-15.5111-37.144-21.3278-56.392-5.5978-13.016-12.2134-25.8854-23.1445-35.2831-5.0533-4.3863-12.1016-3.2936-18.3203-3.1106-2.2137 0 5.3434-5.8196 5.7251-6.0686.743-.4778 1.7252-.9047 1.5928-1.7383-.0361-.178-.1194-.3431-.2411-.478-.1217-.135-.2775-.2349-.4509-.2894-.6933-.3516-1.2605-.9092-1.6234-1.596-2.5445-3.9593-3.3435-8.0762-3.9949-12.7065-1.0839-7.7205 2.7786-17.0826 9.7454-20.8387 24.544-12.6404 35.1138 14.9785 49.4799 28.9353 11.0887 9.4536 26.4877 14.8666 40.8437 10.5413 5.674-1.3164 11.059-3.3037 15.934-6.5616 9.343-6.3024 18.941-12.1983 28.528-18.1144 14.651-8.3404 30.284-14.8282 46.539-19.3139 6.107-1.6925 12.076-4.0661 18.397-4.798 2.091-.0915.87-2.5413 1.155-3.8526.061-1.9619-2.545-.0864-3.563-.0407-27.302 6.9632-53.22 18.2059-76.542 34.0535-6.789 3.8882-12.677 9.4435-20.153 12.0153-16.111 5.9923-29.658 2.6836-43.668-6.521-10.7531-8.7828-16.5036-22.4956-27.9181-30.5719-14.758-9.3418-34.6609 1.3571-41.704 15.7154-4.3002 8.4067-3.1399 19.8222 2.0865 27.5884.5903.7827.4427 1.2097-.2799 1.9009-2.2646 2.2821-4.5088 4.8793-5.6233 7.9289Z"></path><path d="M59.0484 57.7801c.1425 2.2414 1.6946 4.5743-.5394 6.6074-.453.4167-.9211.6454-1.827.1829-2.4223-1.235-4.7785-8.7115-7.3535-7.3901-.6717.3965-2.1679 1.0165-1.9185 1.8857.9719 2.0788 2.6004 3.8272 4.0151 5.6315 3.089 5.1487 11.5825.6811 10.6869-4.6048-.2494-1.4232-.626-4.3863-2.3715-4.1119-.9516.1678-.7176 1.1385-.6921 1.7993Z"></path></g></g><defs><clipPath id="clip0_721_1596"><rect width="128" height="128" rx="64" fill="#fff"></rect></clipPath><clipPath id="clip1_721_1596"><path fill="#fff" transform="matrix(-1 0 0 1 250.902 21.7495)" d="M0 0h217.487v220.885H0z"></path></clipPath></defs></svg>